<svg width="176" height="auto" xmlns="http://www.w3.org/2000/svg" viewBox="0 0 133.01 14.89"><defs><style>.cls-1{fill:#fff;}</style></defs><g id="Layer_2" data-name="Layer 2"><g id="Layer_1-2" data-name="Layer 1"><path class="cls-1" d="M11.47,12.38a7.87,7.87,0,0,1-5.86,2.51,5.57,5.57,0,0,1-4-1.54A5.31,5.31,0,0,1,0,9.38,9.74,9.74,0,0,1,1.14,4.8a9.66,9.66,0,0,1,3-3.48A6.22,6.22,0,0,1,7.73,0a3.42,3.42,0,0,1,2.43.89,3.08,3.08,0,0,1,.93,2.32A4.81,4.81,0,0,1,10,6.44,3.35,3.35,0,0,1,7.31,7.8,2,2,0,0,1,6,7.39a1.28,1.28,0,0,1-.51-1,1.47,1.47,0,0,1,.44-1,1,1,0,0,0,.9.61,1.94,1.94,0,0,0,1.52-1,3.86,3.86,0,0,0,.7-2.24,2.18,2.18,0,0,0-.39-1.36,1.27,1.27,0,0,0-1-.5A3,3,0,0,0,5.57,2,9.65,9.65,0,0,0,3.77,5a9.9,9.9,0,0,0-.72,3.55A5.12,5.12,0,0,0,4.26,12.1a3.93,3.93,0,0,0,3.09,1.37,4.2,4.2,0,0,0,2.15-.55,8,8,0,0,0,2-1.72Z"/><path class="cls-1" d="M20.67,12.37a3.8,3.8,0,0,1-1,.65,2.53,2.53,0,0,1-.78.19,2.35,2.35,0,0,1-1.47-.58c-1,1.49-2.11,2.24-3.38,2.24A2.39,2.39,0,0,1,12.1,14a3.63,3.63,0,0,1-.74-2.37,5.54,5.54,0,0,1,1.66-4,5.42,5.42,0,0,1,4-1.67,3.15,3.15,0,0,1,1.28.19.83.83,0,0,1,.49.44,1.74,1.74,0,0,1,.1.65,13.77,13.77,0,0,1-1.05,4.7,1.59,1.59,0,0,0,1.1.49c.46,0,1-.4,1.76-1.2ZM17.29,6.63a1.25,1.25,0,0,0-.44-.06A2.31,2.31,0,0,0,14.76,8,6.76,6.76,0,0,0,14,11.23a3.37,3.37,0,0,0,.32,1.61,1,1,0,0,0,.92.57c.48,0,1-.45,1.58-1.34a4.09,4.09,0,0,1-1-2.61A3.6,3.6,0,0,1,17.29,6.63Z"/><path class="cls-1" d="M27.45,12.37A15.21,15.21,0,0,1,25,14.26a4,4,0,0,1-2,.61A2.17,2.17,0,0,1,21.23,14a3.59,3.59,0,0,1-.67-2.29,18,18,0,0,1,.93-5.17A32.8,32.8,0,0,1,23.76,1l2.6-1a.58.58,0,0,1,.19,0c.2,0,.36.15.48.44a2.91,2.91,0,0,1,.19,1.17,9.12,9.12,0,0,1-1,4.05,18.21,18.21,0,0,1-3,4.18q-.09,1.07-.09,1.47a2.66,2.66,0,0,0,.33,1.42,1,1,0,0,0,.87.52,2.25,2.25,0,0,0,1.18-.4,13.82,13.82,0,0,0,1.91-1.66Zm-3.93-4a12.52,12.52,0,0,0,2.11-3.25A7.79,7.79,0,0,0,26.44,2a1.33,1.33,0,0,0-.11-.61A.33.33,0,0,0,26,1.18c-.25,0-.62.63-1.1,1.89A36.23,36.23,0,0,0,23.52,8.36Z"/><path class="cls-1" d="M34.24,12.37a15.21,15.21,0,0,1-2.45,1.89,4.07,4.07,0,0,1-2,.61A2.17,2.17,0,0,1,28,14a3.59,3.59,0,0,1-.67-2.29,18,18,0,0,1,.93-5.17A32.8,32.8,0,0,1,30.55,1l2.6-1a.54.54,0,0,1,.19,0c.19,0,.36.15.48.44A2.91,2.91,0,0,1,34,1.61a9.12,9.12,0,0,1-1,4.05,18,18,0,0,1-3,4.18C30,10.55,30,11,30,11.31a2.66,2.66,0,0,0,.33,1.42,1,1,0,0,0,.87.52,2.28,2.28,0,0,0,1.18-.4,14.44,14.44,0,0,0,1.91-1.66Zm-3.93-4a12.52,12.52,0,0,0,2.11-3.25A7.79,7.79,0,0,0,33.23,2a1.33,1.33,0,0,0-.11-.61c-.08-.15-.17-.23-.29-.23s-.62.63-1.1,1.89A36.23,36.23,0,0,0,30.31,8.36Z"/><path class="cls-1" d="M41.91,12.37a13.06,13.06,0,0,1-2.34,1.89,4.48,4.48,0,0,1-2.29.61A3,3,0,0,1,35,14a3.26,3.26,0,0,1-.85-2.35,5.9,5.9,0,0,1,1.5-3.93A4.36,4.36,0,0,1,39,5.94a2.24,2.24,0,0,1,1.52.49,1.61,1.61,0,0,1,.58,1.29c0,1.42-1.51,2.56-4.51,3.45.27,1.33,1,2,2.14,2a2.53,2.53,0,0,0,1.29-.37,11.27,11.27,0,0,0,1.86-1.61Zm-5.38-1.9c1.75-.49,2.63-1.4,2.63-2.73,0-.65-.24-1-.72-1s-.88.34-1.29,1A5.19,5.19,0,0,0,36.53,10.47Z"/><path class="cls-1" d="M49.58,12.37a11.55,11.55,0,0,1-2.41,1.89,4.59,4.59,0,0,1-2.28.61,3,3,0,0,1-3.06-3.07,6.06,6.06,0,0,1,1.59-4,4.53,4.53,0,0,1,3.45-1.85,2.22,2.22,0,0,1,1.49.5,1.69,1.69,0,0,1,.57,1.32.65.65,0,0,1-.11.43,1.05,1.05,0,0,1-.4.29L47.23,9a.85.85,0,0,1-.32.11c-.09,0-.14-.07-.14-.21s0-.23.06-.54.06-.49.06-.56a1.2,1.2,0,0,0-.19-.72.58.58,0,0,0-.51-.28c-.5,0-.95.37-1.37,1.11a5.09,5.09,0,0,0-.62,2.52,3,3,0,0,0,.59,2,1.91,1.91,0,0,0,1.56.72,2.79,2.79,0,0,0,1.56-.47,10,10,0,0,0,1.67-1.46Z"/><path class="cls-1" d="M55.48,12.37a15.06,15.06,0,0,1-2.23,1.89,3.4,3.4,0,0,1-1.8.61A1.71,1.71,0,0,1,50,14.12a3.22,3.22,0,0,1-.54-1.95A10.25,10.25,0,0,1,50,9.36l.44-1.56-.79,0L50,6.23l1,0,1-3.2,2.73-.56L53.59,6,55,5.92,54.7,7.5l-1.59.12-.68,2.3a7,7,0,0,0-.36,1.9,1.24,1.24,0,0,0,.25.79.75.75,0,0,0,.62.3,1.87,1.87,0,0,0,1-.33,10,10,0,0,0,1.51-1.39Z"/><path class="cls-1" d="M60.52,12.37q-2.4,2.52-3.59,2.52a1.33,1.33,0,0,1-1.11-.67,3,3,0,0,1-.45-1.69,18.26,18.26,0,0,1,1.48-6l2.6-.54h.13l-1,3.21A11.07,11.07,0,0,0,57.91,12a.94.94,0,0,0,.15.55.46.46,0,0,0,.38.21,1.35,1.35,0,0,0,.8-.3,9.27,9.27,0,0,0,1.28-1.26ZM60.31,1.93c0,1.64-.6,2.46-1.81,2.46A2.28,2.28,0,0,1,57,3.86a7.21,7.21,0,0,0,.92-2,2.77,2.77,0,0,0,1.31.5A1.86,1.86,0,0,0,60.31,1.93Z"/><path class="cls-1" d="M69.73,12.37a3.69,3.69,0,0,1-1,.65,2.53,2.53,0,0,1-.78.19,2.31,2.31,0,0,1-1.46-.58c-1,1.49-2.12,2.24-3.39,2.24A2.41,2.41,0,0,1,61.15,14a3.63,3.63,0,0,1-.73-2.37,5.51,5.51,0,0,1,1.66-4,5.4,5.4,0,0,1,4-1.67,3.1,3.1,0,0,1,1.27.19.86.86,0,0,1,.5.44,2,2,0,0,1,.09.65,14,14,0,0,1-1,4.7,1.55,1.55,0,0,0,1.09.49q.69,0,1.77-1.2ZM66.34,6.63a1.25,1.25,0,0,0-.44-.06A2.3,2.3,0,0,0,63.82,8a6.65,6.65,0,0,0-.76,3.26,3.25,3.25,0,0,0,.33,1.61,1,1,0,0,0,.91.57c.49,0,1-.45,1.58-1.34a4.13,4.13,0,0,1-1-2.61A3.59,3.59,0,0,1,66.34,6.63Z"/><path class="cls-1" d="M79.79,12.37c-1.58,1.66-2.94,2.5-4.06,2.5a1.4,1.4,0,0,1-1.11-.48,1.93,1.93,0,0,1-.42-1.3,10.3,10.3,0,0,1,.9-3.35,6.08,6.08,0,0,0,.48-1.54c0-.22-.08-.32-.25-.32A.71.71,0,0,0,75,8a3.64,3.64,0,0,0-.51.4q-.25.24-.57.57c-.19.19-.38.41-.6.66l-.57.67a2.09,2.09,0,0,0-.47,1c-.1.58-.17,1.11-.21,1.6s0,.85,0,1.47l-2.26.53c-.08-.92-.12-1.61-.12-2.06A12.2,12.2,0,0,1,70,9.7a20.43,20.43,0,0,1,1.23-3.32l2.51-.48a22.86,22.86,0,0,0-1,3.34,19.5,19.5,0,0,1,2.67-2.6,3.11,3.11,0,0,1,1.75-.72,1.11,1.11,0,0,1,.87.39,1.4,1.4,0,0,1,.35,1,10.47,10.47,0,0,1-.88,3.24,7.63,7.63,0,0,0-.6,2c0,.41.16.62.5.62q.75,0,2.43-2Z"/><path class="cls-1" d="M91,2.67a3.58,3.58,0,0,0-1,1.41,17.6,17.6,0,0,0-.63,3.35,13.09,13.09,0,0,1-1,4,6.05,6.05,0,0,1-2.25,2.45,6.17,6.17,0,0,1-3.37,1,3.33,3.33,0,0,1-2.12-.65,2,2,0,0,1-.81-1.65A.84.84,0,0,1,80,12a4.71,4.71,0,0,1,1-.65,2.71,2.71,0,0,1,1-.41.41.41,0,0,1,.3.12.38.38,0,0,1,.12.28c0,.07,0,.32-.1.76s-.09.7-.09.78c0,.81.34,1.22,1,1.22a2.28,2.28,0,0,0,2-1.36,11.48,11.48,0,0,0,1.14-4.25A11.29,11.29,0,0,1,87.4,4.37a4.39,4.39,0,0,1,1.68-1.69,3.7,3.7,0,0,1,1.33-.5C90.58,2.18,90.77,2.34,91,2.67ZM89.07,0a5.25,5.25,0,0,1,3.44,1.05,3.43,3.43,0,0,1,1.28,2.81,3.52,3.52,0,0,1-1,2.59,2.53,2.53,0,0,1-1.63,1,1,1,0,0,1-.58-.22c-.22-.15-.32-.29-.32-.41a2.82,2.82,0,0,1,.48-.74,4.43,4.43,0,0,0,1.13-2.77,2.33,2.33,0,0,0-.78-1.84A3.14,3.14,0,0,0,89,.77,6,6,0,0,0,85.38,2a3.45,3.45,0,0,0-1.63,2.69A1.32,1.32,0,0,0,84.64,6c.23.1.34.24.34.42s-.25.4-.76.64a3.09,3.09,0,0,1-1.08.37,1.1,1.1,0,0,1-.87-.61,2.26,2.26,0,0,1-.41-1.32,5,5,0,0,1,2.07-3.72A7.58,7.58,0,0,1,89.07,0Z"/><path class="cls-1" d="M101.73,12.37a3.69,3.69,0,0,1-1,.65,2.41,2.41,0,0,1-.78.19,2.31,2.31,0,0,1-1.46-.58c-1,1.49-2.11,2.24-3.39,2.24A2.38,2.38,0,0,1,93.16,14a3.58,3.58,0,0,1-.74-2.37,5.51,5.51,0,0,1,1.66-4,5.42,5.42,0,0,1,4-1.67,3.1,3.1,0,0,1,1.27.19.86.86,0,0,1,.5.44,2,2,0,0,1,.09.65,13.72,13.72,0,0,1-1,4.7,1.58,1.58,0,0,0,1.1.49c.45,0,1-.4,1.76-1.2ZM98.35,6.63a1.32,1.32,0,0,0-.45-.06A2.31,2.31,0,0,0,95.82,8a6.65,6.65,0,0,0-.76,3.26,3.25,3.25,0,0,0,.33,1.61,1,1,0,0,0,.91.57c.49,0,1-.45,1.58-1.34a4.13,4.13,0,0,1-1-2.61A3.6,3.6,0,0,1,98.35,6.63Z"/><path class="cls-1" d="M109.39,12.37q-2.58,2.52-4,2.52a1.33,1.33,0,0,1-1.06-.53,2,2,0,0,1-.43-1.31,8,8,0,0,1,1.55-3.87,5.58,5.58,0,0,1-1.66.54,11.83,11.83,0,0,1-2.09,2.65h-.24v-.93a13,13,0,0,0,1.45-1.78,1.25,1.25,0,0,1-.88-1.16,3.31,3.31,0,0,1,.54-1.69,1.65,1.65,0,0,1,1.48-.89.72.72,0,0,1,.8.82,5.82,5.82,0,0,1-.46,1.84c1.13-.12,2.12-1,3-2.6l.93,0-.95,2.62c-.4,1.11-.65,1.86-.77,2.26a3.74,3.74,0,0,0-.17,1.06,1.11,1.11,0,0,0,.19.69.67.67,0,0,0,.54.26,1.2,1.2,0,0,0,.71-.25c.23-.17.73-.63,1.52-1.39Z"/><path class="cls-1" d="M115.29,12.37a15.06,15.06,0,0,1-2.23,1.89,3.4,3.4,0,0,1-1.79.61,1.71,1.71,0,0,1-1.44-.75,3.22,3.22,0,0,1-.54-1.95,10.25,10.25,0,0,1,.52-2.81l.44-1.56-.79,0,.33-1.61,1,0,1-3.2,2.74-.56L113.41,6l1.44-.08-.33,1.58-1.6.12-.68,2.3a6.89,6.89,0,0,0-.35,1.9,1.24,1.24,0,0,0,.24.79.75.75,0,0,0,.62.3,1.93,1.93,0,0,0,1-.33,10.53,10.53,0,0,0,1.5-1.39Z"/><path class="cls-1" d="M126.24,12.37a22.93,22.93,0,0,1-2.35,2,2.51,2.51,0,0,1-1.36.47c-1.08,0-1.59-1-1.52-2.86a10.75,10.75,0,0,1-1.9,2.16,2.78,2.78,0,0,1-1.78.7,1.85,1.85,0,0,1-1.54-.85,3.35,3.35,0,0,1-.63-2.07A5.53,5.53,0,0,1,116,9a6.77,6.77,0,0,1,2.17-2.25,4.39,4.39,0,0,1,2.33-.86,1.81,1.81,0,0,1,1.8,1.18l2.09-1.16H125l-.9,3a12.81,12.81,0,0,0-.7,3.11c0,.59.2.88.62.88a1.36,1.36,0,0,0,.88-.43c.32-.28.77-.71,1.36-1.29Zm-7.51.56c.68,0,1.33-.58,1.93-1.75A7,7,0,0,0,121.57,8a1.4,1.4,0,0,0-.26-.9.81.81,0,0,0-.68-.32c-.69,0-1.33.58-1.95,1.74a7,7,0,0,0-.91,3.21,1.42,1.42,0,0,0,.27.9A.83.83,0,0,0,118.73,12.93Z"/><path class="cls-1" d="M133,12.37a15.19,15.19,0,0,1-2.44,1.89,4.08,4.08,0,0,1-2,.61A2.14,2.14,0,0,1,126.8,14a3.59,3.59,0,0,1-.68-2.29,17.71,17.71,0,0,1,.94-5.17A32.78,32.78,0,0,1,129.32,1l2.61-1a.54.54,0,0,1,.18,0c.2,0,.36.15.49.44a2.91,2.91,0,0,1,.19,1.17,9,9,0,0,1-1,4.05,17.91,17.91,0,0,1-3,4.18c-.05.71-.08,1.2-.08,1.47a2.66,2.66,0,0,0,.33,1.42,1,1,0,0,0,.87.52,2.28,2.28,0,0,0,1.18-.4,14.54,14.54,0,0,0,1.9-1.66Zm-3.92-4a12.79,12.79,0,0,0,2.11-3.25A7.79,7.79,0,0,0,132,2a1.48,1.48,0,0,0-.11-.61c-.08-.15-.17-.23-.29-.23s-.62.63-1.1,1.89A33.84,33.84,0,0,0,129.09,8.36Z"/></g></g></svg>